<?xml version="1.0" encoding="UTF-8" standalone="no"?>
<svg
   xmlns:osb="http://www.openswatchbook.org/uri/2009/osb"
   xmlns:dc="http://purl.org/dc/elements/1.1/"
   xmlns:cc="http://creativecommons.org/ns#"
   xmlns:rdf="http://www.w3.org/1999/02/22-rdf-syntax-ns#"
   xmlns:svg="http://www.w3.org/2000/svg"
   xmlns="http://www.w3.org/2000/svg"
   xmlns:xlink="http://www.w3.org/1999/xlink"
   xmlns:sodipodi="http://sodipodi.sourceforge.net/DTD/sodipodi-0.dtd"
   xmlns:inkscape="http://www.inkscape.org/namespaces/inkscape"
   sodipodi:docname="logo.svg"
   inkscape:version="1.0 (4035a4fb49, 2020-05-01)"
   id="svg8"
   version="1.1"
   viewBox="0 0 50.944 14.11393"
   height="53.343987"
   width="192.54425">
  <defs
     id="defs2">
    <linearGradient
       osb:paint="solid"
       id="linearGradient2893">
      <stop
         id="stop2891"
         offset="0"
         style="stop-color:#4ea8de;stop-opacity:1;" />
    </linearGradient>
    <linearGradient
       osb:paint="gradient"
       id="linearGradient2863">
      <stop
         id="stop2859"
         offset="0"
         style="stop-color:#6c61cb;stop-opacity:1" />
      <stop
         id="stop2861"
         offset="1"
         style="stop-color:#6ee3dc;stop-opacity:1" />
    </linearGradient>
    <linearGradient
       osb:paint="gradient"
       id="linearGradient2855">
      <stop
         id="stop2851"
         offset="0"
         style="stop-color:#6c61cb;stop-opacity:1" />
      <stop
         id="stop2853"
         offset="1"
         style="stop-color:#4ea8de;stop-opacity:1" />
    </linearGradient>
    <linearGradient
       id="linearGradient2847"
       osb:paint="gradient">
      <stop
         style="stop-color:#80ffdb;stop-opacity:1;"
         offset="0"
         id="stop2843" />
      <stop
         style="stop-color:#407481;stop-opacity:1"
         offset="1"
         id="stop2845" />
    </linearGradient>
    <linearGradient
       id="linearGradient2841"
       osb:paint="gradient">
      <stop
         style="stop-color:#6c61cb;stop-opacity:1"
         offset="0"
         id="stop2837" />
      <stop
         style="stop-color:#4ea8de;stop-opacity:1"
         offset="1"
         id="stop2839" />
    </linearGradient>
    <linearGradient
       osb:paint="gradient"
       id="3_2">
      <stop
         id="stop1647"
         offset="0"
         style="stop-color:#80ffdb;stop-opacity:1;" />
      <stop
         id="stop1649"
         offset="1"
         style="stop-color:#4ec3de;stop-opacity:1" />
    </linearGradient>
    <linearGradient
       osb:paint="solid"
       id="3">
      <stop
         id="stop1459"
         offset="0"
         style="stop-color:#80ffdb;stop-opacity:1;" />
    </linearGradient>
    <linearGradient
       osb:paint="solid"
       id="1">
      <stop
         id="stop1429"
         offset="0"
         style="stop-color:#8527bb;stop-opacity:1;" />
    </linearGradient>
    <linearGradient
       osb:paint="solid"
       id="2">
      <stop
         id="stop1423"
         offset="0"
         style="stop-color:#4ec3de;stop-opacity:1;" />
    </linearGradient>
    <linearGradient
       osb:paint="gradient"
       id="1_2">
      <stop
         id="stop1369"
         offset="0"
         style="stop-color:#8527bb;stop-opacity:1" />
      <stop
         id="stop1371"
         offset="1"
         style="stop-color:#4ea8de;stop-opacity:1" />
    </linearGradient>
    <linearGradient
       y2="143.13715"
       x2="24.416538"
       y1="133.52344"
       x1="30.707031"
       gradientUnits="userSpaceOnUse"
       id="linearGradient1657"
       xlink:href="#3_2"
       inkscape:collect="always" />
    <linearGradient
       gradientUnits="userSpaceOnUse"
       y2="139.60481"
       x2="66.53933"
       y1="139.60481"
       x1="15.595331"
       id="linearGradient2895"
       xlink:href="#linearGradient2863"
       inkscape:collect="always" />
    <linearGradient
       y2="139.60481"
       x2="66.53933"
       y1="139.60481"
       x1="15.595331"
       gradientUnits="userSpaceOnUse"
       id="linearGradient2897"
       xlink:href="#linearGradient2863"
       inkscape:collect="always" />
    <linearGradient
       y2="139.60481"
       x2="66.53933"
       y1="139.60481"
       x1="15.595331"
       gradientUnits="userSpaceOnUse"
       id="linearGradient2899"
       xlink:href="#linearGradient2863"
       inkscape:collect="always" />
    <linearGradient
       y2="139.60481"
       x2="66.53933"
       y1="139.60481"
       x1="15.595331"
       gradientUnits="userSpaceOnUse"
       id="linearGradient2901"
       xlink:href="#linearGradient2863"
       inkscape:collect="always" />
    <linearGradient
       y2="139.60481"
       x2="66.53933"
       y1="139.60481"
       x1="15.595331"
       gradientUnits="userSpaceOnUse"
       id="linearGradient2903"
       xlink:href="#linearGradient2863"
       inkscape:collect="always" />
    <linearGradient
       y2="139.60481"
       x2="66.53933"
       y1="139.60481"
       x1="15.595331"
       gradientUnits="userSpaceOnUse"
       id="linearGradient2905"
       xlink:href="#linearGradient2863"
       inkscape:collect="always" />
    <linearGradient
       y2="139.60481"
       x2="66.53933"
       y1="139.60481"
       x1="15.595331"
       gradientUnits="userSpaceOnUse"
       id="linearGradient2907"
       xlink:href="#linearGradient2863"
       inkscape:collect="always" />
    <linearGradient
       y2="139.60481"
       x2="66.53933"
       y1="139.60481"
       x1="15.595331"
       gradientUnits="userSpaceOnUse"
       id="linearGradient2909"
       xlink:href="#linearGradient2863"
       inkscape:collect="always" />
    <linearGradient
       y2="139.60481"
       x2="66.53933"
       y1="139.60481"
       x1="15.595331"
       gradientUnits="userSpaceOnUse"
       id="linearGradient2911"
       xlink:href="#linearGradient2863"
       inkscape:collect="always" />
    <linearGradient
       y2="139.60481"
       x2="66.53933"
       y1="139.60481"
       x1="15.595331"
       gradientUnits="userSpaceOnUse"
       id="linearGradient2913"
       xlink:href="#linearGradient2863"
       inkscape:collect="always" />
    <linearGradient
       y2="139.60481"
       x2="66.53933"
       y1="139.60481"
       x1="15.595331"
       gradientUnits="userSpaceOnUse"
       id="linearGradient2915"
       xlink:href="#linearGradient2863"
       inkscape:collect="always" />
    <linearGradient
       y2="139.60481"
       x2="66.53933"
       y1="139.60481"
       x1="15.595331"
       gradientUnits="userSpaceOnUse"
       id="linearGradient2917"
       xlink:href="#linearGradient2863"
       inkscape:collect="always" />
    <linearGradient
       y2="139.60481"
       x2="66.53933"
       y1="139.60481"
       x1="15.595331"
       gradientUnits="userSpaceOnUse"
       id="linearGradient2919"
       xlink:href="#linearGradient2863"
       inkscape:collect="always" />
    <linearGradient
       y2="139.60481"
       x2="66.53933"
       y1="139.60481"
       x1="15.595331"
       gradientUnits="userSpaceOnUse"
       id="linearGradient2921"
       xlink:href="#linearGradient2863"
       inkscape:collect="always" />
    <linearGradient
       y2="139.60481"
       x2="66.53933"
       y1="139.60481"
       x1="15.595331"
       gradientUnits="userSpaceOnUse"
       id="linearGradient2923"
       xlink:href="#linearGradient2863"
       inkscape:collect="always" />
    <linearGradient
       y2="139.60481"
       x2="66.53933"
       y1="139.60481"
       x1="15.595331"
       gradientUnits="userSpaceOnUse"
       id="linearGradient2925"
       xlink:href="#linearGradient2863"
       inkscape:collect="always" />
    <linearGradient
       y2="139.60481"
       x2="66.53933"
       y1="139.60481"
       x1="15.595331"
       gradientUnits="userSpaceOnUse"
       id="linearGradient2927"
       xlink:href="#linearGradient2863"
       inkscape:collect="always" />
  </defs>
  <sodipodi:namedview
     inkscape:document-rotation="0"
     units="px"
     inkscape:pagecheckerboard="true"
     borderlayer="true"
     fit-margin-bottom="0"
     fit-margin-right="0"
     fit-margin-left="0"
     fit-margin-top="0"
     inkscape:snap-midpoints="true"
     showgrid="false"
     inkscape:current-layer="g1366"
     inkscape:document-units="px"
     inkscape:cy="61.84352"
     inkscape:cx="204.75359"
     inkscape:zoom="2.5596891"
     inkscape:pageshadow="2"
     inkscape:pageopacity="0.0"
     borderopacity="1.0"
     bordercolor="#666666"
     pagecolor="#ffffff"
     id="base" />
  <metadata
     id="metadata5">
    <rdf:RDF>
      <cc:Work
         rdf:about="">
        <dc:format>image/svg+xml</dc:format>
        <dc:type
           rdf:resource="http://purl.org/dc/dcmitype/StillImage" />
        <dc:title />
      </cc:Work>
    </rdf:RDF>
  </metadata>
  <g
     transform="translate(-51.142178,-328.01897)"
     id="layer1"
     inkscape:groupmode="layer"
     inkscape:label="Calque 1">
    <g
       transform="translate(35.546847,195.47209)"
       id="g1366">
      <path
         sodipodi:nodetypes="ccccccccccc"
         inkscape:connector-curvature="0"
         id="path1332"
         d="m 33.096481,132.54688 -0.550782,0.97656 h -3.330078 l -6.528088,10.49609 h -2.389751 v 1.40039 h 3.267449 l 6.433594,-10.49609 h 8.801956 l -4.21289,-2.375 z"
         style="color:#000000;font-style:normal;font-variant:normal;font-weight:normal;font-stretch:normal;font-size:medium;line-height:normal;font-family:sans-serif;font-variant-ligatures:normal;font-variant-position:normal;font-variant-caps:normal;font-variant-numeric:normal;font-variant-alternates:normal;font-feature-settings:normal;text-indent:0;text-align:start;text-decoration:none;text-decoration-line:none;text-decoration-style:solid;text-decoration-color:#000000;letter-spacing:normal;word-spacing:normal;text-transform:none;writing-mode:lr-tb;direction:ltr;text-orientation:mixed;dominant-baseline:auto;baseline-shift:baseline;text-anchor:start;white-space:normal;shape-padding:0;clip-rule:nonzero;display:inline;overflow:visible;visibility:visible;opacity:1;isolation:auto;mix-blend-mode:normal;color-interpolation:sRGB;color-interpolation-filters:linearRGB;solid-color:#000000;solid-opacity:1;vector-effect:none;fill:url(#linearGradient1657);fill-opacity:1.0;fill-rule:nonzero;stroke:none;stroke-width:0.26458334;stroke-linecap:butt;stroke-linejoin:miter;stroke-miterlimit:4;stroke-dasharray:none;stroke-dashoffset:0;stroke-opacity:1;paint-order:normal;color-rendering:auto;image-rendering:auto;shape-rendering:auto;text-rendering:auto;enable-background:accumulate;font-variation-settings:normal;stop-color:#000000;stop-opacity:1" />
      <g
         style="fill:url(#linearGradient2895);fill-opacity:1;stroke-width:1.00013;stroke-miterlimit:4;stroke-dasharray:none"
         id="g1367">
        <path
           style="color:#000000;font-style:normal;font-variant:normal;font-weight:normal;font-stretch:normal;font-size:medium;line-height:normal;font-family:sans-serif;font-variant-ligatures:normal;font-variant-position:normal;font-variant-caps:normal;font-variant-numeric:normal;font-variant-alternates:normal;font-feature-settings:normal;font-variation-settings:normal;text-indent:0;text-align:start;text-decoration:none;text-decoration-line:none;text-decoration-style:solid;text-decoration-color:#000000;letter-spacing:normal;word-spacing:normal;text-transform:none;writing-mode:lr-tb;direction:ltr;text-orientation:mixed;dominant-baseline:auto;baseline-shift:baseline;text-anchor:start;white-space:normal;shape-padding:0;clip-rule:nonzero;display:inline;overflow:visible;visibility:visible;opacity:1;isolation:auto;mix-blend-mode:normal;color-interpolation:sRGB;color-interpolation-filters:linearRGB;solid-color:#000000;solid-opacity:1;vector-effect:none;fill:url(#linearGradient2897);fill-opacity:1;fill-rule:nonzero;stroke:none;stroke-width:1.00013;stroke-linecap:butt;stroke-linejoin:miter;stroke-miterlimit:4;stroke-dasharray:none;stroke-dashoffset:0;stroke-opacity:1;paint-order:normal;color-rendering:auto;image-rendering:auto;shape-rendering:auto;text-rendering:auto;enable-background:accumulate;stop-color:#000000;stop-opacity:1"
           d="m 20.517578,133.23931 v 1.63374 h 2.675781 l 7.44292,10.73893 h 1.277343 l 0.589844,1.04883 5.076172,-2.84961 h -6.001953 l -7.442919,-10.73893 z"
           id="path1334"
           inkscape:connector-curvature="0"
           sodipodi:nodetypes="cccccccccc" />
        <path
           inkscape:connector-curvature="0"
           id="path1336"
           style="font-style:normal;font-variant:normal;font-weight:normal;font-stretch:normal;font-size:40px;line-height:1.25;font-family:'Starlight demo';-inkscape-font-specification:'Starlight demo';font-variation-settings:normal;letter-spacing:0px;word-spacing:0px;opacity:1;vector-effect:none;fill:url(#linearGradient2899);fill-opacity:1;stroke:none;stroke-width:1.00013;stroke-linecap:butt;stroke-linejoin:miter;stroke-miterlimit:4;stroke-dasharray:none;stroke-dashoffset:0;stroke-opacity:1;paint-order:normal;stop-color:#000000;stop-opacity:1"
           d="m 15.595331,143.06305 0.15875,-6.90034 1.87325,-0.29633 v -0.0106 l 1.407583,2.06375 1.471083,-2.42358 v 0 l 1.87325,0.32808 -0.0635,7.39775 -1.905,-0.0212 0.03175,-3.95817 -0.550333,0.92075 -0.772583,1.25942 -0.814917,-1.21709 -0.719667,-1.03716 -0.08467,3.94758 z" />
        <g
           id="g1348"
           style="font-variation-settings:normal;opacity:1;vector-effect:none;fill:url(#linearGradient2911);fill-opacity:1;stroke:none;stroke-width:1.00013;stroke-linecap:butt;stroke-linejoin:miter;stroke-miterlimit:4;stroke-dasharray:none;stroke-dashoffset:0;stroke-opacity:1;paint-order:normal;stop-color:#000000;stop-opacity:1">
          <path
             style="font-style:normal;font-variant:normal;font-weight:normal;font-stretch:normal;font-size:40px;line-height:1.25;font-family:'Starlight demo';-inkscape-font-specification:'Starlight demo';font-variation-settings:normal;letter-spacing:0px;word-spacing:0px;vector-effect:none;fill:url(#linearGradient2901);fill-opacity:1;stroke:none;stroke-width:1.00013;stroke-linecap:butt;stroke-linejoin:miter;stroke-miterlimit:4;stroke-dasharray:none;stroke-dashoffset:0;stroke-opacity:1;paint-order:normal;stop-color:#000000;stop-opacity:1"
             d="m 31.654913,135.59122 -1.174604,1.91564 h 1.244885 v 5.61982 h 1.915644 v -5.61982 h 1.94717 v -1.91564 z"
             id="path1338"
             inkscape:connector-curvature="0"
             sodipodi:nodetypes="ccccccccc" />
          <path
             d="m 37.825029,135.96163 q 0,0 0,0.21167 0.01058,0.21166 0.01058,0.5715 0,0.34925 0.01058,0.8255 0.01058,0.46567 0.01058,1.00542 0,0.52916 0,1.09008 0.01058,0.56092 0.01058,1.09008 0,0.21167 0.105833,0.37042 0.105834,0.14817 0.275167,0.22225 0.08467,0.0423 0.179917,0.0741 0.105833,0.0212 0.22225,0.0212 0.105833,0.0106 0.211666,-0.0106 0.105834,-0.0212 0.211667,-0.0529 0.1905,-0.0741 0.328083,-0.23283 0.137584,-0.16934 0.169334,-0.43392 0.0635,-0.78317 0.04233,-1.72508 -0.01058,-0.94192 -0.03175,-1.87325 -0.01058,-0.29634 -0.02117,-0.58209 0,-0.28575 -0.01058,-0.59267 l 1.894417,-0.0212 q 0.01058,0.24342 0.01058,0.53975 0.01058,0.29634 0.02117,0.60326 0.02117,0.99483 0.04233,1.98966 0.02117,0.99484 -0.0635,1.82034 -0.07408,0.91016 -0.560917,1.48167 -0.486833,0.56092 -1.164166,0.80433 -0.5715,0.21167 -1.153584,0.17992 -0.296333,-0.0106 -0.582083,-0.0741 -0.28575,-0.0635 -0.550333,-0.17992 -0.635,-0.30692 -1.058334,-0.88901 -0.423333,-0.58208 -0.423333,-1.43933 0,-0.21167 0,-0.64558 0,-0.4445 0,-0.97367 -0.01058,-0.52917 -0.01058,-1.09008 -0.01058,-0.56092 -0.01058,-1.01601 -0.01058,-0.46566 -0.01058,-0.762 0,-0.29633 0,-0.29633 z"
             style="font-style:normal;font-variant:normal;font-weight:normal;font-stretch:normal;font-size:40px;line-height:1.25;font-family:'Starlight demo';-inkscape-font-specification:'Starlight demo';font-variation-settings:normal;letter-spacing:0px;word-spacing:0px;vector-effect:none;fill:url(#linearGradient2903);fill-opacity:1;stroke:none;stroke-width:1.00013;stroke-linecap:butt;stroke-linejoin:miter;stroke-miterlimit:4;stroke-dasharray:none;stroke-dashoffset:0;stroke-opacity:1;paint-order:normal;stop-color:#000000;stop-opacity:1"
             id="path1340"
             inkscape:connector-curvature="0" />
          <path
             d="m 43.966669,137.34805 0.04233,1.40758 q 0.243417,-0.0635 0.455084,-0.17991 0.22225,-0.127 0.370416,-0.27517 0.148167,-0.14817 0.201084,-0.30692 0.05292,-0.15875 -0.03175,-0.28575 -0.08467,-0.13758 -0.338667,-0.23283 -0.243417,-0.0952 -0.6985,-0.127 z m 1.651,2.74108 2.180167,1.57692 -1.121834,1.53459 -2.592916,-1.87326 0.05292,1.70392 -1.894416,0.0529 q -0.0635,-1.92617 -0.127,-3.81 -0.05292,-1.88384 -0.127,-3.79942 0.66675,-0.0212 1.375833,-0.0318 0.719667,-0.0212 1.375833,0.10583 0.656167,0.11642 1.185334,0.4445 0.529166,0.3175 0.836083,0.96308 0.201083,0.44451 0.1905,0.89959 0,0.4445 -0.169333,0.85725 -0.169334,0.41275 -0.47625,0.77258 -0.296334,0.34925 -0.687917,0.60325 z"
             style="font-style:normal;font-variant:normal;font-weight:normal;font-stretch:normal;font-size:40px;line-height:1.25;font-family:'Starlight demo';-inkscape-font-specification:'Starlight demo';font-variation-settings:normal;letter-spacing:0px;word-spacing:0px;vector-effect:none;fill:url(#linearGradient2905);fill-opacity:1;stroke:none;stroke-width:1.00013;stroke-linecap:butt;stroke-linejoin:miter;stroke-miterlimit:4;stroke-dasharray:none;stroke-dashoffset:0;stroke-opacity:1;paint-order:normal;stop-color:#000000;stop-opacity:1"
             id="path1342"
             inkscape:connector-curvature="0" />
          <path
             d="m 52.74356,135.70763 -0.01058,1.905 -2.804583,-0.0317 v 0.94192 l 2.899833,0.0212 -0.01058,1.89442 -2.88925,-0.0212 0.01058,0.98425 2.899834,0.0212 -0.02117,1.905 q -1.217083,-0.0212 -2.391833,-0.0212 -1.17475,0.0106 -2.38125,0.0106 l -0.01058,-7.63058 q 1.17475,0 2.3495,0.0106 1.17475,0 2.360084,0.0106 z"
             style="font-style:normal;font-variant:normal;font-weight:normal;font-stretch:normal;font-size:40px;line-height:1.25;font-family:'Starlight demo';-inkscape-font-specification:'Starlight demo';font-variation-settings:normal;letter-spacing:0px;word-spacing:0px;vector-effect:none;fill:url(#linearGradient2907);fill-opacity:1;stroke:none;stroke-width:1.00013;stroke-linecap:butt;stroke-linejoin:miter;stroke-miterlimit:4;stroke-dasharray:none;stroke-dashoffset:0;stroke-opacity:1;paint-order:normal;stop-color:#000000;stop-opacity:1"
             id="path1344"
             inkscape:connector-curvature="0" />
          <path
             d="m 55.12481,140.77705 q 0.02117,0.14817 0.05292,0.3175 0.03175,0.16933 0.127,0.28575 0.0635,0.0847 0.243417,0.13758 0.1905,0.0529 0.529167,0.0318 0.148166,-0.0106 0.264583,-0.0741 0.127,-0.0635 0.211667,-0.14816 0.22225,-0.23284 0.201083,-0.48684 0,-0.254 -0.148167,-0.37041 -0.179916,-0.16934 -0.624416,-0.17992 -0.243417,-0.0212 -0.497417,-0.0423 -0.243417,-0.0212 -0.486833,-0.0847 -0.306917,-0.0635 -0.592667,-0.20108 -0.28575,-0.13759 -0.529167,-0.381 -0.3175,-0.30692 -0.497416,-0.67734 -0.179917,-0.37041 -0.22225,-0.762 -0.05292,-0.55033 0.137583,-1.03716 0.1905,-0.51859 0.60325,-0.91017 0.338667,-0.30692 0.783167,-0.508 0.455083,-0.20109 1.026583,-0.26459 0.402167,-0.0318 0.73025,0 0.529167,0.0529 0.92075,0.24342 0.391583,0.1905 0.66675,0.46567 0.275167,0.29633 0.41275,0.64558 0.148167,0.34925 0.1905,0.73025 0.03175,0.3175 0,0.635 l -1.905,-0.17991 q 0.02117,-0.127 0,-0.27517 -0.02117,-0.21167 -0.116417,-0.30692 -0.105833,-0.127 -0.34925,-0.13758 -0.137583,-0.0106 -0.359833,0 -0.22225,0.0212 -0.391583,0.0952 -0.15875,0.0741 -0.264584,0.16933 -0.05292,0.0423 -0.09525,0.10584 -0.03175,0.0529 -0.05292,0.10583 -0.05292,0.11642 -0.03175,0.24342 0.02117,0.0847 0.05292,0.17991 0.04233,0.0847 0.127,0.16934 0.03175,0.0529 0.201084,0.0847 0.116416,0.0212 0.28575,0.0423 0.169333,0.0106 0.359833,0.0318 0.5715,0.0212 1.016,0.1905 0.4445,0.16933 0.783167,0.4445 0.751416,0.635 0.772583,1.67216 0.02117,0.47625 -0.169333,0.94192 -0.179917,0.46567 -0.518584,0.8255 -0.338666,0.34925 -0.783166,0.5715 -0.4445,0.22225 -0.994834,0.26458 -0.910166,0.0529 -1.49225,-0.21166 -0.5715,-0.254 -0.910166,-0.65617 -0.3175,-0.40217 -0.433917,-0.8255 -0.105833,-0.42333 -0.137583,-0.77258 z"
             style="font-style:normal;font-variant:normal;font-weight:normal;font-stretch:normal;font-size:40px;line-height:1.25;font-family:'Starlight demo';-inkscape-font-specification:'Starlight demo';font-variation-settings:normal;letter-spacing:0px;word-spacing:0px;vector-effect:none;fill:url(#linearGradient2909);fill-opacity:1;stroke:none;stroke-width:1.00013;stroke-linecap:butt;stroke-linejoin:miter;stroke-miterlimit:4;stroke-dasharray:none;stroke-dashoffset:0;stroke-opacity:1;paint-order:normal;stop-color:#000000;stop-opacity:1"
             id="path1346"
             inkscape:connector-curvature="0" />
        </g>
        <g
           id="g1360"
           style="font-variation-settings:normal;opacity:1;vector-effect:none;fill:url(#linearGradient2923);fill-opacity:1;stroke:none;stroke-width:1.00013;stroke-linecap:butt;stroke-linejoin:miter;stroke-miterlimit:4;stroke-dasharray:none;stroke-dashoffset:0;stroke-opacity:1;paint-order:normal;stop-color:#000000;stop-opacity:1">
          <path
             d="m 58.994317,143.14349 0.01976,-0.75071 0.819857,0.0247 -0.01976,0.75072 -0.819856,-0.0247 z"
             style="font-style:normal;font-weight:normal;font-size:18.6667px;line-height:1.25;font-family:sans-serif;font-variation-settings:normal;letter-spacing:0px;word-spacing:0px;vector-effect:none;fill:url(#linearGradient2913);fill-opacity:1;stroke:none;stroke-width:1.00013;stroke-linecap:butt;stroke-linejoin:miter;stroke-miterlimit:4;stroke-dasharray:none;stroke-dashoffset:0;stroke-opacity:1;paint-order:normal;stop-color:#000000;stop-opacity:1"
             id="path1350"
             inkscape:connector-curvature="0" />
          <path
             d="m 60.746388,141.29634 0.04939,1.85209 -0.70626,0.0198 -0.04939,-1.85703 z m -0.0049,-1.04704 0.01976,0.64699 -0.7112,0.0148 -0.01482,-0.64206 z"
             style="font-style:normal;font-weight:normal;font-size:18.6667px;line-height:1.25;font-family:sans-serif;font-variation-settings:normal;letter-spacing:0px;word-spacing:0px;vector-effect:none;fill:url(#linearGradient2915);fill-opacity:1;stroke:none;stroke-width:1.00013;stroke-linecap:butt;stroke-linejoin:miter;stroke-miterlimit:4;stroke-dasharray:none;stroke-dashoffset:0;stroke-opacity:1;paint-order:normal;stop-color:#000000;stop-opacity:1"
             id="path1352"
             inkscape:connector-curvature="0" />
          <path
             d="m 61.618796,140.64441 0.0049,0.12841 q 0.2667,-0.10866 0.484011,-0.0889 0.21731,0.0148 0.380293,0.14323 0.162984,0.12841 0.2667,0.36547 0.103717,0.23213 0.148167,0.55316 0.04445,0.33584 0.04445,0.72108 0,0.38029 -0.01976,0.73589 l -0.7112,-0.0346 q 0.01976,-0.32596 0.01976,-0.67663 0.0049,-0.3556 -0.03457,-0.65193 -0.02468,-0.16792 -0.04445,-0.2667 -0.01976,-0.0988 -0.04939,-0.13829 -0.02963,-0.0444 -0.08396,-0.0395 -0.04939,0.005 -0.13335,0.0395 -0.05433,0.0247 -0.118533,0.0642 -0.05927,0.0346 -0.13335,0.0938 l 0.03457,1.5607 -0.706261,0.0198 -0.05927,-2.51884 z"
             style="font-style:normal;font-weight:normal;font-size:18.6667px;line-height:1.25;font-family:sans-serif;font-variation-settings:normal;letter-spacing:0px;word-spacing:0px;vector-effect:none;fill:url(#linearGradient2917);fill-opacity:1;stroke:none;stroke-width:1.00013;stroke-linecap:butt;stroke-linejoin:miter;stroke-miterlimit:4;stroke-dasharray:none;stroke-dashoffset:0;stroke-opacity:1;paint-order:normal;stop-color:#000000;stop-opacity:1"
             id="path1354"
             inkscape:connector-curvature="0" />
          <path
             d="m 64.525334,140.3135 q -0.212374,-0.0148 -0.325967,0.0148 -0.108657,0.0296 -0.158046,0.1136 -0.04939,0.084 -0.05433,0.22225 0,0.13828 0,0.33584 l 0.40005,-0.0247 0.04445,0.70626 -0.424744,0.0247 q 0.0099,0.27164 0.02963,0.53834 0.01976,0.26176 0.03457,0.47413 0.01976,0.24695 0.03457,0.4692 l -0.70626,0.0593 q 0,0 -0.0099,-0.12841 -0.0099,-0.12841 -0.02469,-0.33584 -0.01482,-0.21237 -0.03457,-0.47907 -0.01482,-0.27164 -0.02963,-0.55316 l -0.256821,0.0148 -0.03457,-0.7112 0.27164,-0.0148 q -0.0049,-0.22225 0.0049,-0.39511 0.0099,-0.1778 0.02963,-0.29139 0.03951,-0.21238 0.148167,-0.34573 0.113596,-0.13829 0.251883,-0.22225 0.14323,-0.084 0.296333,-0.11853 0.153107,-0.0395 0.281517,-0.0494 0.128413,-0.0148 0.212373,-0.01 0.08396,0 0.08396,0 z"
             style="font-style:normal;font-weight:normal;font-size:18.6667px;line-height:1.25;font-family:sans-serif;font-variation-settings:normal;letter-spacing:0px;word-spacing:0px;vector-effect:none;fill:url(#linearGradient2919);fill-opacity:1;stroke:none;stroke-width:1.00013;stroke-linecap:butt;stroke-linejoin:miter;stroke-miterlimit:4;stroke-dasharray:none;stroke-dashoffset:0;stroke-opacity:1;paint-order:normal;stop-color:#000000;stop-opacity:1"
             id="path1356"
             inkscape:connector-curvature="0" />
          <path
             d="m 65.826499,141.94827 q 0.0049,-0.10371 0.0049,-0.1778 0,-0.079 -0.01976,-0.13335 -0.01482,-0.0543 -0.05927,-0.079 -0.04445,-0.0296 -0.123471,-0.0296 -0.103717,0 -0.162983,0.0296 -0.05927,0.0247 -0.09384,0.084 -0.02963,0.0593 -0.03951,0.15311 -0.0049,0.0889 -0.0049,0.21731 0,0.15804 0,0.26176 0.0049,0.0988 0.02963,0.15311 0.02469,0.0543 0.07408,0.0741 0.05433,0.0198 0.153106,0.0198 0.0889,0 0.138287,-0.0593 0.04939,-0.0642 0.06915,-0.15311 0.02469,-0.0889 0.02963,-0.18768 0.0049,-0.0988 0.0049,-0.17286 z m 0.6223,-0.62724 q 0.08396,0.19262 0.0889,0.38524 0.0049,0.18768 -0.0049,0.35066 -0.0049,0.11359 -0.01482,0.24694 -0.0099,0.12842 -0.03951,0.26177 -0.02963,0.12841 -0.0889,0.25188 -0.05927,0.11853 -0.162984,0.21237 -0.103716,0.0889 -0.26176,0.14323 -0.158044,0.0593 -0.380294,0.0593 -0.321029,0 -0.513646,-0.10372 -0.187677,-0.10372 -0.291393,-0.27658 -0.09878,-0.17286 -0.128411,-0.39017 -0.03457,-0.21731 -0.03457,-0.44944 0,-0.24201 0.04939,-0.45932 0.04939,-0.21731 0.162983,-0.38029 0.118534,-0.16299 0.31115,-0.25682 0.197554,-0.0988 0.48895,-0.0988 0.345721,0 0.538338,0.14323 0.192616,0.14322 0.281516,0.36053 z"
             style="font-style:normal;font-weight:normal;font-size:18.6667px;line-height:1.25;font-family:sans-serif;font-variation-settings:normal;letter-spacing:0px;word-spacing:0px;vector-effect:none;fill:url(#linearGradient2921);fill-opacity:1;stroke:none;stroke-width:1.00013;stroke-linecap:butt;stroke-linejoin:miter;stroke-miterlimit:4;stroke-dasharray:none;stroke-dashoffset:0;stroke-opacity:1;paint-order:normal;stop-color:#000000;stop-opacity:1"
             id="path1358"
             inkscape:connector-curvature="0" />
        </g>
        <path
           style="color:#000000;font-style:normal;font-variant:normal;font-weight:normal;font-stretch:normal;font-size:medium;line-height:normal;font-family:sans-serif;font-variant-ligatures:normal;font-variant-position:normal;font-variant-caps:normal;font-variant-numeric:normal;font-variant-alternates:normal;font-feature-settings:normal;font-variation-settings:normal;text-indent:0;text-align:start;text-decoration:none;text-decoration-line:none;text-decoration-style:solid;text-decoration-color:#000000;letter-spacing:normal;word-spacing:normal;text-transform:none;writing-mode:lr-tb;direction:ltr;text-orientation:mixed;dominant-baseline:auto;baseline-shift:baseline;text-anchor:start;white-space:normal;shape-padding:0;clip-rule:nonzero;display:inline;overflow:visible;visibility:visible;opacity:1;isolation:auto;mix-blend-mode:normal;color-interpolation:sRGB;color-interpolation-filters:linearRGB;solid-color:#000000;solid-opacity:1;vector-effect:none;fill:url(#linearGradient2925);fill-opacity:1;fill-rule:nonzero;stroke:none;stroke-width:1.00013;stroke-linecap:butt;stroke-linejoin:miter;stroke-miterlimit:4;stroke-dasharray:none;stroke-dashoffset:0;stroke-opacity:1;paint-order:normal;color-rendering:auto;image-rendering:auto;shape-rendering:auto;text-rendering:auto;enable-background:accumulate;stop-color:#000000;stop-opacity:1"
           d="m 34.587891,132.54883 -0.548829,0.97461 h -3.332031 l -6.433593,10.49609 h -2.484246 v 1.40039 h 3.267449 l 6.433593,-10.49609 h 7.310547 z"
           id="path1362"
           inkscape:connector-curvature="0"
           sodipodi:nodetypes="cccccccccc" />
        <path
           inkscape:connector-curvature="0"
           id="path1364"
           style="font-style:normal;font-variant:normal;font-weight:normal;font-stretch:normal;font-size:40px;line-height:1.25;font-family:'Starlight demo';-inkscape-font-specification:'Starlight demo';font-variation-settings:normal;letter-spacing:0px;word-spacing:0px;opacity:1;vector-effect:none;fill:url(#linearGradient2927);fill-opacity:1;stroke:none;stroke-width:1.00013;stroke-linecap:butt;stroke-linejoin:miter;stroke-miterlimit:4;stroke-dasharray:none;stroke-dashoffset:0;stroke-opacity:1;paint-order:normal;stop-color:#000000;stop-opacity:1"
           d="m 24.310706,139.16838 0.105833,3.96876 -1.513417,0.0423 -0.105833,-3.97934 z m -0.01058,-2.24367 0.04233,1.38642 -1.524,0.0318 -0.03175,-1.37583 z" />
      </g>
    </g>
  </g>
</svg>
